<svg xmlns="http://www.w3.org/2000/svg" width="170" height="54.216" viewBox="0 0 170 54.216"><g id="Group_108" data-name="Group 108" transform="translate(-147.043 -5373.454)"><rect id="Rectangle_113" data-name="Rectangle 113" width="168" height="52.216" rx="5" transform="translate(148.043 5374.454)" fill="none" stroke="#fff" stroke-width="2"/><g id="Group_107" data-name="Group 107" fill="#fff"><path id="Path_414" data-name="Path 414" d="M.9 0h1.87a3.31 3.31 0 0 0 3.64-3.55v-.09a3.28 3.28 0 0 0-3.62-3.51H.9zm.87-.71v-5.74h.97a2.5 2.5 0 0 1 2.77 2.81v.08A2.542 2.542 0 0 1 2.75-.71zm8.2.8a2.524 2.524 0 0 0 2.58-2.67v-.08a2.52 2.52 0 0 0-2.57-2.66 2.528 2.528 0 0 0-2.57 2.67v.08A2.528 2.528 0 0 0 9.97.09zm.01-.69c-1.06 0-1.71-.78-1.71-1.97v-.08c0-1.2.66-1.98 1.71-1.98s1.71.78 1.71 1.99v.07A1.74 1.74 0 0 1 9.98-.6zm4.81.6h.91l1.22-3.92L18.01 0h.92l1.63-5.23h-.85l-1.23 4.21-1.19-4.21h-.72L15.3-1.02l-1.22-4.21h-.9zm6.89 0h.83v-3.17a1.376 1.376 0 0 1 1.46-1.43c.84 0 1.23.41 1.23 1.33V0h.83v-3.21c0-1.52-.76-2.11-1.84-2.11a1.8 1.8 0 0 0-1.68.92v-.83h-.83zm6 0h.84v-7.73h-.84zm4.71.09a2.524 2.524 0 0 0 2.58-2.67v-.08a2.52 2.52 0 0 0-2.57-2.66 2.528 2.528 0 0 0-2.57 2.67v.08A2.528 2.528 0 0 0 32.39.09zm.01-.69c-1.06 0-1.71-.78-1.71-1.97v-.08c0-1.2.66-1.98 1.71-1.98s1.71.78 1.71 1.99v.07A1.74 1.74 0 0 1 32.4-.6zm5.17.69a1.885 1.885 0 0 0 1.63-.75V0h.83v-3.45a1.687 1.687 0 0 0-1.91-1.87 1.83 1.83 0 0 0-2.07 1.63h.83c.08-.64.48-.94 1.2-.94.8 0 1.12.35 1.12 1.18v.38h-.75c-1.34 0-2.62.41-2.62 1.62 0 1.07.77 1.54 1.74 1.54zm.08-.66c-.73 0-.99-.34-.99-.88 0-.77.77-1.03 1.82-1.03h.72v.65c0 .81-.67 1.26-1.55 1.26zm5.98.66a2.2 2.2 0 0 0 1.79-.99V0h.83v-7.73h-.83v3.34a1.874 1.874 0 0 0-1.71-.93 2.486 2.486 0 0 0-2.44 2.73v.08a2.34 2.34 0 0 0 2.36 2.6zm.09-.69c-.88 0-1.59-.63-1.59-1.95v-.08c0-1.27.62-2 1.66-2 1.02 0 1.66.63 1.66 1.97v.08c0 1.34-.76 1.98-1.73 1.98zm9.03.69a2.524 2.524 0 0 0 2.58-2.67v-.08a2.52 2.52 0 0 0-2.57-2.66 2.528 2.528 0 0 0-2.57 2.67v.08A2.528 2.528 0 0 0 52.75.09zm.01-.69c-1.06 0-1.71-.78-1.71-1.97v-.08c0-1.2.66-1.98 1.71-1.98s1.71.78 1.71 1.99v.07A1.74 1.74 0 0 1 52.76-.6zm5.63.69a1.786 1.786 0 0 0 1.66-.92V0h.83v-5.23h-.83v3.17a1.376 1.376 0 0 1-1.44 1.43c-.82 0-1.21-.41-1.21-1.33v-3.27h-.83v3.31c0 1.44.78 2.01 1.82 2.01zM62.56 0h.83v-2.87c0-1.29.67-1.62 1.72-1.67v-.78a1.826 1.826 0 0 0-1.72 1.03v-.94h-.83z" transform="translate(190.043 5393.806)"/><path id="Path_413" data-name="Path 413" d="M1.386 0H4v-9.036L7.578 0h.954L12.1-9.036V0H15v-12.87h-3.78L8.244-4.86l-3.006-8.01H1.386zm20.106.2a4.7 4.7 0 0 0 4.968-4.86v-.144a4.673 4.673 0 0 0-4.95-4.826 4.72 4.72 0 0 0-4.968 4.878v.144A4.668 4.668 0 0 0 21.492.2zm.018-1.98c-1.476 0-2.3-1.08-2.3-2.88v-.144c0-1.8.864-2.844 2.3-2.844 1.458 0 2.3 1.08 2.3 2.88v.126c.004 1.78-.842 2.86-2.3 2.86zM33.462.2c2.34 0 4.1-1.746 4.1-4.86v-.144c0-3.114-1.8-4.824-4.1-4.824a3.5 3.5 0 0 0-3.006 1.692v-5.744h-2.61V0h2.61v-1.494A3.228 3.228 0 0 0 33.462.2zm-.774-2.034c-1.422 0-2.322-.918-2.322-2.808v-.144c0-1.89.936-2.844 2.3-2.844 1.314 0 2.25.936 2.25 2.844v.144c.004 1.834-.788 2.806-2.228 2.806zm7.612-8.858a1.43 1.43 0 0 0 1.5-1.422 1.43 1.43 0 0 0-1.5-1.422 1.426 1.426 0 0 0-1.476 1.422 1.426 1.426 0 0 0 1.476 1.422zM39.024 0h2.592v-9.414h-2.592zm4.7 0h2.592v-13.68h-2.594zm8.946.2c2.574 0 4.194-1.134 4.5-3.168H54.7c-.162.792-.756 1.314-1.962 1.314A2.256 2.256 0 0 1 50.4-4.122h6.786v-.72c0-3.366-2.16-4.788-4.59-4.788a4.673 4.673 0 0 0-4.842 4.9v.144A4.568 4.568 0 0 0 52.668.2zm-2.234-5.924A2.16 2.16 0 0 1 52.6-7.83c1.242 0 1.962.684 2.052 2.106zM61.4 0h2.736l.882-2.862h4.662L70.56 0h3.04l-4.174-12.87h-3.8zm5.958-10.494l1.692 5.562h-3.4zM74.772 3.2h2.61v-4.64A3.29 3.29 0 0 0 80.388.2c2.34 0 4.1-1.746 4.1-4.86v-.144c0-3.114-1.8-4.824-4.1-4.824a3.5 3.5 0 0 0-3.006 1.692v-1.478h-2.61zm4.842-5.04c-1.422 0-2.322-.918-2.322-2.808v-.144c0-1.89.936-2.844 2.3-2.844 1.314 0 2.25.936 2.25 2.844v.144c.004 1.84-.788 2.812-2.228 2.812zm6.264 5.04h2.61v-4.64A3.29 3.29 0 0 0 91.494.2c2.34 0 4.1-1.746 4.1-4.86v-.144c0-3.114-1.8-4.824-4.1-4.824a3.5 3.5 0 0 0-3.006 1.692v-1.478h-2.61zm4.842-5.04c-1.422 0-2.322-.918-2.322-2.808v-.144c0-1.89.936-2.844 2.3-2.844 1.314 0 2.25.936 2.25 2.844v.144c.004 1.84-.788 2.812-2.228 2.812zM100.44.2c2.484 0 3.96-1.062 3.96-3.1 0-2.016-1.3-2.61-3.654-2.952-1.368-.2-1.818-.432-1.818-1.026 0-.576.486-.972 1.332-.972a1.274 1.274 0 0 1 1.476 1.134h2.394c-.234-2.16-1.8-2.916-3.888-2.916-1.926 0-3.726.972-3.726 2.934 0 1.836.972 2.556 3.474 2.934 1.35.2 1.908.468 1.908 1.116s-.468 1.026-1.476 1.026c-1.134 0-1.548-.486-1.656-1.332h-2.43C96.426-.918 97.9.2 100.44.2z" transform="translate(188.908 5413.292)"/></g><path id="Path_28" data-name="Path 28" d="M21.476-26H6.72a1.837 1.837 0 0 0-1.845 1.845V1.67A1.837 1.837 0 0 0 6.72 3.513h14.756A1.837 1.837 0 0 0 23.32 1.67v-25.825A1.837 1.837 0 0 0 21.477-26zM14.1 1.67a1.837 1.837 0 0 1-1.847-1.846A1.837 1.837 0 0 1 14.1-2.02a1.837 1.837 0 0 1 1.843 1.844A1.837 1.837 0 0 1 14.1 1.67zm6.15-5.535H7.95V-21.08h12.3z" transform="translate(158.87 5411.29)" fill="#fff"/></g></svg>