<svg id="Layer_2" xmlns="http://www.w3.org/2000/svg" viewBox="0 0 49.81 43.69"><defs><style>.cls-1,.cls-2{stroke-linecap:round;stroke-linejoin:round}.cls-1,.cls-2,.cls-3{fill:none;stroke:#0050b5}.cls-2{stroke-width:2px}.cls-3{stroke-miterlimit:10}</style></defs><g id="Layer_1-2"><circle class="cls-3" cx="23.9" cy="11.45" r="10.95"/><path class="cls-1" d="M20.75 14.82c.52.82 1.73 1.4 3.15 1.4 1.89 0 3.42-.51 3.42-2.29s-1.53-2.29-3.42-2.29-3.42-.63-3.42-2.29 1.53-2.29 3.42-2.29c1.3 0 2.43.49 3.01 1.2M23.9 7.05V5M23.9 18.4v-2.05"/><path class="cls-1" transform="rotate(-172.91 44.238 35.39)" d="M40.05 28.05h8.39v14.68h-8.39z"/><path class="cls-1" d="M39.3 41.12l-18.18 1.73c-.69.07-1.38-.09-1.97-.45L1.03 31.37c-.37-.23-.57-.65-.52-1.08l.26-2.1c.09-.7.79-1.13 1.45-.9l12.89 4.49"/><path class="cls-1" d="M40.86 28.63l-9.44-1.17c-.63-.08-1.27.03-1.83.32l-5.02 2.51c-.57.28-1.21.39-1.83.32l-6.58-.82a.794.794 0 0 0-.88.68l-.34 2.75c-.05.37.17.71.52.84l7.53 2.69c.63.23 1.32.25 1.97.06l6.68-1.93"/><path class="cls-2" d="M43.72 39.55"/></g></svg>