<svg id="Layer_2" xmlns="http://www.w3.org/2000/svg" viewBox="0 0 69.13 39.67"><defs><style>.cls-1{fill:none;stroke:#0050b5;stroke-linecap:round;stroke-linejoin:round}</style></defs><g id="Layer_1-2"><rect class="cls-1" x=".5" y=".5" width="68.13" height="38.67" rx="3.33" ry="3.33"/><path class="cls-1" d="M26.88 19.95h30.78M.5 10.77h68.13M10.65 28.53c.52.82 1.73 1.4 3.15 1.4 1.89 0 3.42-.51 3.42-2.29s-1.53-2.29-3.42-2.29-3.42-.63-3.42-2.29 1.53-2.29 3.42-2.29c1.3 0 2.43.49 3.01 1.2M13.79 20.76V18.7M13.79 32.11v-2.06M26.8 30.82c.53-1.21 1.67-3.13 2.61-4.62.83-1.32 2.49-1.09 2.98.51v.02c.41 1.38 1.68 1.9 2.6 1.07l.12-.11c.65-.59 1.28-1.2 1.93-1.78.68-.61 1.32-.58 2.03.01 1.01.83 2 1.68 3.11 2.41 1.32.86 1.96.81 3.31-.02.66-.4 1.28-.85 1.96-1.22 1.58-.85 3.05-.78 4.44.27 1.29.98 2.64 1.2 4.23.54"/></g></svg>