<svg id="Layer_2" xmlns="http://www.w3.org/2000/svg" viewBox="0 0 59.25 31.94"><defs><style>.cls-1{fill:none;stroke:#0050b5;stroke-linecap:round;stroke-linejoin:round}</style></defs><g id="Layer_1-2"><path class="cls-1" d="M5.41 5.34V.5h53.34v26.1h-4.92"/><path class="cls-1" d="M.5 5.34h53.34v26.1H.5z"/><circle class="cls-1" cx="27.83" cy="18.38" r="6.27"/><path class="cls-1" d="M53.84 13.06c-.54.15-1.12.24-1.71.24a6.274 6.274 0 0 1-6.04-7.96M46.1 31.44a6.42 6.42 0 0 1-.24-1.71 6.274 6.274 0 0 1 7.96-6.04M1.09 23.13a6.42 6.42 0 0 1 1.71-.24 6.274 6.274 0 0 1 6.04 7.96M8.96 5.34c.15.54.1.53.1 1.12A6.274 6.274 0 0 1 1.1 12.5"/></g></svg>