<svg id="Layer_2" xmlns="http://www.w3.org/2000/svg" viewBox="0 0 70.07 38.87"><defs><style>.cls-1{fill:none;stroke:#0050b5;stroke-linecap:round;stroke-linejoin:round}</style></defs><g id="Layer_1-2"><path id="Line_Finger" class="cls-1" d="M47.74 24.69l4.48 2.34"/><path id="Finger" class="cls-1" d="M29.92 34.55c-.84.99-.72 2.46.26 3.3.98.84 2.4.6 3.3-.27.67-.65.93-1.09 1.4-1.65.83-.99.71-2.47-.28-3.3-.99-.83-2.46-.64-3.29.28l-1.38 1.63z"/><path id="Fingers" class="cls-1" d="M35.43 35c.96.48 5.08 2.62 5.08 2.62 1.18.59 2.88.19 3.47-.99.59-1.17.47-2.78-1.7-3.8.48.24 3.07 1.45 3.07 1.45 1.18.59 2.73.21 3.32-.96.59-1.18-.07-2.7-1.24-3.29L50 31.29c1.18.59 2.7.18 3.29-.99.59-1.17.11-2.66-1.07-3.25l1.41.69c1.18.59 2.27-.07 2.87-1.25.59-1.17.05-2.59-1.06-3.2-3.68-1.99-4.75-2.57-7.54-4.12"/><path id="Line_Hand" class="cls-1" d="M10.14 19.8s2.96 2.34 3.82 3.05c.92.76 1.76 1.45 3.34 3.29"/><path id="Line_Hand-2" class="cls-1" d="M17.68 6.26c2.81 1.38 3.01 2.27 6.43.73 3.34-1.5 8.28-1.81 11.21-.35"/><path id="Line_Finger-2" class="cls-1" d="M43.84 28.09l3.59 1.93"/><path id="Hand" class="cls-1" d="M53.11 7.22s-1.08.51-2.31.9q-1.23.39-3.39-.92s-1.03-.94-2.64-1.55c-2.03-.77-4.42-.6-7.57.58-3.92 1.47-6.65 2.51-9 2.47-2.21-.04-3.28 1.32-2.75 2.84.85 2.39 4.61 2.98 6.49 2.38 4.45-1.42 6.24 2.89 6.24 2.89 1.66 2.36 3.26 4.83 12.12 1.02"/><path id="Line_Hand-3" class="cls-1" d="M59.6 21.39c-1.33.74-2.85 2.11-3.17 2.74"/><path id="Finger-2" class="cls-1" d="M28.77 35.32l2.27-2.63c.85-1.01.73-2.5-.28-3.35-1-.85-2.5-.72-3.35.29l-2.28 2.61c-.85 1-.74 2.5.26 3.36 1 .85 2.5.73 3.35-.27"/><path id="Finger-3" class="cls-1" d="M27.3 29.7a2.38 2.38 0 0 0-3.66-3.04l-2.7 3.18a2.39 2.39 0 0 0 .28 3.36c1.01.85 2.5.72 3.35-.29l2.72-3.21z"/><path id="Finger-4" class="cls-1" d="M17.78 25.94l-.82 1.05c-.81 1.04-.62 2.53.42 3.34s2.53.62 3.34-.42l1.34-1.6c.83-1.02.67-2.52-.35-3.35a2.373 2.373 0 0 0-3.35.35l-.62.7"/><path class="cls-1" transform="rotate(-26.85 60.987 11.546)" d="M55.91 2.63h10.18v17.82H55.91z"/><path class="cls-1" transform="rotate(28 9.18 10.768)" d="M4.09 1.85h10.18v17.82H4.09z"/><circle class="cls-1" cx="58.7" cy="6.99" r="1.28"/></g></svg>