<svg xmlns="http://www.w3.org/2000/svg" width="88.138" height="36.845" viewBox="0 0 88.138 36.845"><g id="Group_234" data-name="Group 234" fill="#fff"><path id="Path_215" data-name="Path 215" d="M2513.162 825.674l-18.2 10.36v3.743h2.79v12.87h30.37v-12.87h2.838v-3.642zm11.458 23.695h-23.17v-12.924l11.71-6.872 11.46 6.872z" transform="translate(-2442.82 -825.674)" fill-rule="evenodd"/><path id="Path_216" data-name="Path 216" d="M2535.273 870.992v-3.18h12.118v3.18z" transform="translate(-2471.16 -855.3)" fill-rule="evenodd"/><path id="Path_217" data-name="Path 217" d="M2535.273 883.756h12.118v3.18h-12.117v-3.18z" transform="translate(-2471.16 -866.508)" fill-rule="evenodd"/><g id="Group_233" data-name="Group 233"><path id="Path_218" data-name="Path 218" d="M2559.623 936.1h-2.13v4.05h2.08c1.672 0 2.636-.358 2.636-1.948-.002-1.64-1.066-2.102-2.587-2.102zm-.1 3.178h-.913v-2.308h1.014a1.245 1.245 0 0 1 1.37 1.23c-.003.925-.612 1.08-1.473 1.08z" transform="translate(-2486.78 -903.308)" fill-rule="evenodd"/><path id="Path_219" data-name="Path 219" d="M2598.312 938.46c.76-.1 1.115-.41 1.115-1.077 0-.923-.457-1.282-1.572-1.282h-2.94v4.052h1.115v-1.692h1.065l1.166 1.692h1.218zm-.664-.867h-1.622v-.615h1.673c.455 0 .658.05.658.307 0 .308-.152.308-.71.308z" transform="translate(-2513.09 -903.308)" fill-rule="evenodd"/><path id="Path_220" data-name="Path 220" d="M2540.306 938.614l-2.13-2.513h-1.267v4.052h1.064v-2.46l2.13 2.46h1.267V936.1h-1.064z" transform="translate(-2472.31 -903.308)" fill-rule="evenodd"/><path id="Path_221" data-name="Path 221" d="M2502.825 936.1h-1.115v4.05h4.005v-.87l-2.89-.052z" transform="translate(-2447.564 -903.308)" fill-rule="evenodd"/><path id="Path_222" data-name="Path 222" d="M2519.06 940.152h3.9v-.872h-2.74v-.872h2.283v-.82h-2.282v-.615h2.74v-.873h-3.9z" transform="translate(-2459.76 -903.308)" fill-rule="evenodd"/><path id="Path_223" data-name="Path 223" d="M2577.574 940.152l3.854-.05v-.82h-2.738v-.873h2.332v-.82h-2.332v-.616h2.738v-.874h-3.854z" transform="translate(-2500.9 -903.308)" fill-rule="evenodd"/><path id="Path_224" data-name="Path 224" d="M2530.344 920.482h-.862l-1.014 3.64h.74l.223-.82h.914l.224.82h.79zm-.756 2.215l.3-1.436.355 1.437z" transform="translate(-2466.376 -892.327)" fill-rule="evenodd"/><path id="Path_225" data-name="Path 225" d="M2511.866 922.4v-.77c0-.87-.2-1.486-1.217-1.486-.914 0-1.218.513-1.218 1.436v.974c0 1.23.71 1.282 2.79 1.282l.05-.256-.608-.205a1.85 1.85 0 0 0 .202-.975zm-.764.153c0 .667-.05.82-.456.82-.355 0-.457-.2-.457-.872v-.87c0-.668.05-.873.506-.873.355 0 .405.1.405.82z" transform="translate(-2452.993 -892.087)" fill-rule="evenodd"/><path id="Path_226" data-name="Path 226" d="M2580.31 923.367c-.3 0-.507-.205-.608-.564l-.608.1c0 .564.355 1.025 1.166 1.025a1.2 1.2 0 0 0 1.268-1.025c0-.872-1.623-1.282-1.623-1.846 0-.2.2-.308.405-.308.3 0 .456.204.61.512l.506-.205a1.024 1.024 0 0 0-1.166-.923c-.608 0-1.116.308-1.116.923 0 1.026 1.622 1.282 1.622 1.95 0 .257-.152.36-.456.36z" transform="translate(-2501.967 -892.084)" fill-rule="evenodd"/><path id="Path_227" data-name="Path 227" d="M2561.8 923.93c.963 0 1.217-.41 1.217-1.383v-1.128c0-.924-.253-1.283-1.217-1.283-.76 0-1.217.41-1.217 1.385v1.18c0 .87.253 1.23 1.217 1.23zm-.458-2.46c0-.462.05-.77.456-.77s.457.36.457.77v1.077c0 .615-.152.82-.457.82-.405 0-.456-.256-.456-.768z" transform="translate(-2488.953 -892.084)" fill-rule="evenodd"/><path id="Path_228" data-name="Path 228" d="M2603.235 923.93c.785 0 1.014-.37 1.014-.768v-1.18h-1.066v.565h.355v.41c0 .308-.1.46-.356.46-.507 0-.558-.358-.558-.87v-.82c0-.616.05-1.026.558-1.026.355 0 .558.257.608.616l.507-.205a1.026 1.026 0 0 0-1.167-.973c-1.014 0-1.217.564-1.217 1.333v1.077c0 1.076.305 1.384 1.32 1.384z" transform="translate(-2518.013 -892.084)" fill-rule="evenodd"/><path id="Path_229" data-name="Path 229" d="M2572.228 920.48h-.71v2.1c0 .82-.05 1.025-.456 1.025s-.457-.308-.457-1.077v-2.048h-.76v2.1c0 1.23.21 1.624 1.273 1.624.81 0 1.11-.445 1.11-1.522z" transform="translate(-2495.465 -892.326)" fill-rule="evenodd"/><path id="Path_230" data-name="Path 230" d="M2595.037 924.123v-3.64h-.608v2.255l-.812-2.256h-.963v3.64h.608v-2.46l.862 2.46z" transform="translate(-2511.5 -892.328)" fill-rule="evenodd"/><path id="Path_231" data-name="Path 231" d="M2521.2 924.172c1.166 0 1.217-.564 1.217-1.59v-2.1h-.71v2.154c0 .718-.1.923-.456.923-.405 0-.456-.206-.456-1.026v-2.054h-.71v2.205c-.002 1.026.1 1.487 1.116 1.487z" transform="translate(-2460.48 -892.326)" fill-rule="evenodd"/><path id="Path_232" data-name="Path 232" d="M2553.415 924.123v-3.64h-.71v1.384h-.862v-1.385h-.71v3.64h.71v-1.64h.862v1.64z" transform="translate(-2482.31 -892.328)" fill-rule="evenodd"/><path id="Path_233" data-name="Path 233" d="M2503.362 923.56h-1.115v-1.027h1.014v-.513h-1.013v-.974h1.115v-.564h-1.825v3.64h1.825z" transform="translate(-2447.442 -892.328)" fill-rule="evenodd"/><path id="Path_234" data-name="Path 234" d="M2540.956 923.56h-1.065v-3.078h-.607v3.64h1.673z" transform="translate(-2473.98 -892.328)" fill-rule="evenodd"/><path id="Rectangle_215" data-name="Rectangle 215" transform="translate(79.932 28.155)" d="M0 0h.66v3.64H0z"/></g><path id="Path_235" data-name="Path 235" d="M2351.865 883.064h5.542c5 0 8.184 3.073 8.184 7.87 0 5.312-3.53 7.9-9.16 7.9h-4.566v-15.77zm5.2 3.616c-.2 0-.46.03-.8.03v8.5c2.814 0 5-1.12 5-4.366a3.853 3.853 0 0 0-4.193-4.164z" transform="translate(-2342.22 -866.02)" fill-rule="evenodd"/><path id="Path_236" data-name="Path 236" d="M2427.838 886.962V882.8a8.612 8.612 0 0 0-3.532-.718 8.13 8.13 0 0 0-8.328 8.127 7.98 7.98 0 0 0 8.242 8.01 5.66 5.66 0 0 0 3.618-1.004v-4.166a5.925 5.925 0 0 1-3.388 1.15 4.028 4.028 0 0 1-4.135-4.194 4.1 4.1 0 0 1 4.135-4.22 6.05 6.05 0 0 1 3.388 1.176z" transform="translate(-2387.293 -865.33)" fill-rule="evenodd"/><path id="Path_237" data-name="Path 237" d="M2319.385 858.415v.747h3.073v-.747c-.89-.03-1.034-.144-1.034-.747v-3.762l1.838 5.255h.775l1.98-5.254v3.676c0 .775 0 .775-1.09.833v.747h3.56v-.747c-1.033 0-1.06-.115-1.06-.66v-3.676c0-.6.085-.8 1.062-.8v-.78h-3.045l-1.55 4.22-1.437-4.22h-3.073v.775c.862 0 1 0 1 .747v3.532c0 .69 0 .86-1 .86z" transform="translate(-2319.385 -844.533)" fill-rule="evenodd"/><path id="Path_238" data-name="Path 238" d="M2369.56 862.63v.747h2.842v-.747c-.69-.03-.69-.115-.69-1.062v-.8c0-.775.345-1.407 1.064-1.407.574 0 .747.374.747.89v1.695c0 .574-.03.69-.718.69v.746h2.556v-.746c-.6 0-.66-.058-.66-.632v-1.177c0-.8.374-1.493 1.12-1.493.574 0 .69.344.69 1.034v1.723c0 .487 0 .545-.69.545v.747h2.814v-.747c-.862 0-.92.03-.92-.46v-1.924c0-1.09-.257-1.722-1.377-1.722a2.092 2.092 0 0 0-1.637.833 1.473 1.473 0 0 0-1.378-.86 1.932 1.932 0 0 0-1.608.918v-.775h-2.154v.69c.86 0 .948.028.948.717v1.58c0 1.004 0 1.004-.948 1.004z" transform="translate(-2354.66 -848.748)" fill-rule="evenodd"/><path id="Path_239" data-name="Path 239" d="M2319.85 883.064v15.766h4.335l.03-6.03h4.22v-3.648h-4.193l-.03-2.44h4.538v-3.648z" transform="translate(-2319.71 -866.02)" fill-rule="evenodd"/><path id="Path_240" data-name="Path 240" d="M2401.274 852.506h2.01v2.44a2.014 2.014 0 0 1 1.436-.63c1.15 0 1.924 1.033 1.924 2.47 0 1.55-.775 2.555-2.1 2.555a1.81 1.81 0 0 1-1.465-.66l-.4.547h-.6v-5.17c0-.774-.058-.86-.8-.86v-.69zm4.02 4.276c0-1.09-.4-1.637-.975-1.637-.748 0-1.063.6-1.063 1.723 0 .976.373 1.637 1.034 1.637.547 0 1.006-.517 1.006-1.723z" transform="translate(-2376.955 -844.538)" fill-rule="evenodd"/><path id="Path_241" data-name="Path 241" d="M2439.952 862.7v.747h3.1v-.747c-.862 0-.948.03-.948-.66V861c0-.948.316-1.81 1.177-1.81a.766.766 0 0 1 .288.06.736.736 0 0 0-.488.66.627.627 0 0 0 .66.63.78.78 0 0 0 .776-.86 1.056 1.056 0 0 0-1.09-1.092 1.768 1.768 0 0 0-1.35.775v-.66h-2.126v.69c.747 0 .948 0 .948.63v1.954c0 .66 0 .718-.948.718z" transform="translate(-2404.147 -848.816)" fill-rule="evenodd"/><path id="Path_242" data-name="Path 242" d="M2423.675 861.212c0 .92.43 1.55 1.206 1.55.69 0 1.006-.4 1.12-1.033h.862a1.968 1.968 0 0 1-2.1 1.865 2.254 2.254 0 0 1-2.412-2.44 2.338 2.338 0 0 1 2.3-2.557c1.35 0 2.21 1.034 2.21 2.613zm.976-1.87c-.573 0-.918.4-.918 1.12h1.81c0-.748-.288-1.12-.89-1.12z" transform="translate(-2391.775 -848.82)" fill-rule="evenodd"/><path id="Path_243" data-name="Path 243" d="M2353.28 861.212c0 .92.46 1.55 1.236 1.55.69 0 1.005-.4 1.12-1.033h.833a1.942 1.942 0 0 1-2.07 1.865 2.275 2.275 0 0 1-2.44-2.44 2.36 2.36 0 0 1 2.326-2.557c1.35 0 2.182 1.034 2.182 2.613zm1-1.87c-.573 0-.918.4-.918 1.12h1.78c0-.776-.286-1.12-.86-1.12z" transform="translate(-2342.286 -848.82)" fill-rule="evenodd"/><path id="Path_244" data-name="Path 244" d="M2399.635 898.83h4.336v-15.766h-4.335v15.766z" transform="translate(-2375.804 -866.02)" fill-rule="evenodd"/></g></svg>