<svg id="Layer_2" xmlns="http://www.w3.org/2000/svg" viewBox="0 0 59.4 38.98"><defs><style>.cls-1{stroke-linejoin:round}.cls-1,.cls-2,.cls-3,.cls-4{stroke:#0050b5}.cls-1,.cls-2,.cls-4{fill:none}.cls-5{fill:#0050b5}.cls-2,.cls-3{stroke-linecap:round}.cls-2,.cls-3,.cls-4{stroke-miterlimit:10}.cls-3{fill:#fff}</style></defs><g id="Layer_1-2"><path class="cls-4" d="M13.29 13l-.03-10.16c0-1.23.99-2.23 2.22-2.23l41.13-.1c1.23 0 2.23.99 2.23 2.22l.05 21.42c0 1.23-.99 2.23-2.22 2.23l-10.37.03"/><path class="cls-2" d="M46.55 16.48l8.32-.04M46.56 21.37l8.32-.04"/><path class="cls-5" transform="rotate(-.14 36.823 8.23)" d="M13.27 4.89h45.58v3.89H13.27z"/><rect class="cls-4" x=".5" y="12.61" width="45.59" height="25.87" rx="2.23" ry="2.23"/><path class="cls-3" d="M25.42 28.54h16.66M25.42 33.43h16.66"/><path class="cls-1" d="M4.24 24.92h4.62v4.62H4.24z"/><path class="cls-5" d="M.51 16.95h45.58v3.89H.51z"/></g></svg>