<svg id="Layer_2" xmlns="http://www.w3.org/2000/svg" viewBox="0 0 42.21 65.09"><defs><style>.cls-1,.cls-2{fill:none;stroke:#0050b5}.cls-1{stroke-linecap:round;stroke-linejoin:round}.cls-2{stroke-miterlimit:10}</style></defs><g id="Layer_1-2"><circle class="cls-1" cx="25.72" cy="48.64" r="10.13"/><path class="cls-1" d="M23.08 51.25c.43.69 1.45 1.17 2.63 1.17 1.58 0 2.86-.43 2.86-1.92s-1.28-1.92-2.86-1.92c-1.58 0-2.86-.53-2.86-1.92s1.28-1.92 2.86-1.92c1.09 0 2.03.41 2.52 1.01M25.72 44.75v-1.72M25.72 54.25v-1.72"/><path id="Path_88" class="cls-2" d="M33.35 29.44l6.01 10.11c5.99 10.09-.02 23.42-11.66 24.91-.36.05-.72.08-1.09.1-.29.02-.58.03-.87.03s-.58 0-.87-.03c-.36-.02-.73-.06-1.09-.1-6.77-.87-11.63-5.73-13.34-11.64-1.23-4.25-.83-9.04 1.68-13.27l6.01-10.12"/><path id="Path_88-2" class="cls-2" d="M15.54 6.26l-2.62-4.62c2.88-2.17 6.89-.76 8.56.89l.37-.28c.53-.4 1.12-.71 1.74-.91.7-.23 1.43-.29 2.15-.3.76.02 1.45.07 2.15.3.63.21 1.21.52 1.74.91l.37.28c1.67-1.65 5.67-3.14 8.69-.89l-4.14 7.12"/><path class="cls-1" d="M12.31 11.43l.68-1.04s1.44-1.2 2.02-2.51c.19-.44.43-.88.69-1.33 1.1-1.88 3.44-2.31 5.12-1.33.84.49 1.35 1.38 1.5 2.34.05.34.13.69.24.9l12.25.16c1.47 0 2.6 1.28 2.42 2.74l-1.14 16.67c-.1.86-.82 1.51-1.69 1.52-3.61.06-13.67.08-15.96-.3-2.91-.48-5.29-1.3-6.08-1.6M.5 9.63h11.81v20.66H.5z"/><circle class="cls-1" cx="6.4" cy="14.33" r="1.28"/></g></svg>