<svg id="Layer_2" xmlns="http://www.w3.org/2000/svg" viewBox="0 0 79.04 44.28"><defs><style>.cls-1{fill:none;stroke:#0050b5;stroke-linecap:round;stroke-linejoin:round}.cls-2{fill:#0050b5}</style></defs><g id="Layer_1-2"><path class="cls-1" d="M68.63 15.38v25.07a3.33 3.33 0 0 1-3.33 3.33H3.83A3.33 3.33 0 0 1 .5 40.45V8.44a3.33 3.33 0 0 1 3.33-3.33H65.3c.95 0 1.8.4 2.41 1.03M26.88 24.57h23.25M.5 15.38h58.46"/><path class="cls-1" d="M10.65 33.14c.52.82 1.73 1.4 3.15 1.4 1.89 0 3.42-.51 3.42-2.29s-1.53-2.29-3.42-2.29-3.42-.63-3.42-2.29 1.53-2.29 3.42-2.29c1.3 0 2.43.49 3.01 1.2M13.79 25.37v-2.05M13.79 36.72v-2.05M76.33 7.07l1.55-1.55c.89-.89.89-2.33 0-3.22l-1.14-1.14c-.89-.89-2.33-.89-3.22 0l-1.55 1.55-24.45 24.45-2.24 6.36c-.05.14.09.28.23.23l6.36-2.24.36-.36 24.1-24.08z"/><path class="cls-1" d="M48.13 26.55l4.35 4.35-4.35-4.35zM75.24 8.16L70.88 3.8l4.36 4.36z"/><path class="cls-2" d="M48.08 26.82l4 4.37-6.4 2.03 2.4-6.4z"/><path class="cls-1" d="M26.88 36.22c.53-1.21 1.67-3.13 2.61-4.62.83-1.32 2.49-1.09 2.98.51v.02c.41 1.38 1.68 1.9 2.6 1.07l.12-.11c.65-.59 1.28-1.2 1.93-1.78.68-.61 1.32-.58 2.03.01 1.01.83 2 1.68 3.11 2.41 1.32.86 1.96.81 3.31-.02"/></g></svg>