<svg id="Layer_2" xmlns="http://www.w3.org/2000/svg" viewBox="0 0 58.41 43.55"><defs><style>.cls-1{fill:none;stroke:#0050b5;stroke-linecap:round;stroke-linejoin:round}.cls-2{fill:#0050b5}</style></defs><g id="Layer_1-2"><path class="cls-1" d="M21.87 7.25a23.72 23.72 0 0 1 8.91.29M45.76 25.56c-.7 2.11-1.8 4.07-3.22 5.81v11.68h-8.18v-5.72c-2.67 1.1-5.64 1.73-8.78 1.73-2.63 0-5.13-.45-7.45-1.23v5.23H9.96V32.83c-1.54-1.52-3.55-4.68-3.74-7.07H.5V15.42h5.11c1.14-4.55 2.82-7.32 5.95-9.57l.63-4.5c.1-.71.9-1.08 1.5-.7l3.63 2.29c2.53-.97 5.32-1.5 8.25-1.5 10.26 0 19.04 5.99 20.65 15.23.54 2.54.4 5.75 3.56 6.27 1.69.08 4.48-.47 4.67-2.42.21-2.12-2.02-2.88-3.24-1.62-1.84 1.89.76 7.09 6.68 4.82"/><circle class="cls-2" cx="12.88" cy="15.82" r="1.43"/></g></svg>